<?xml version="1.0" standalone="no"?>
<!DOCTYPE svg PUBLIC "-//W3C//DTD SVG 20010904//EN"
 "http://www.w3.org/TR/2001/REC-SVG-20010904/DTD/svg10.dtd">
<svg version="1.0" xmlns="http://www.w3.org/2000/svg"
 width="260.000000pt" height="260.000000pt" viewBox="0 0 260.000000 260.000000"
 preserveAspectRatio="xMidYMid meet">
<metadata>
Created by potrace 1.11, written by Peter Selinger 2001-2013
</metadata>
<g transform="translate(0.000000,260.000000) scale(0.100000,-0.100000)"
fill="#000000" stroke="none">
<path d="M0 1300 l0 -1300 1300 0 1300 0 0 1300 0 1300 -1300 0 -1300 0 0
-1300z m939 765 c51 -26 52 -37 49 -506 l-3 -434 -28 -59 c-75 -160 -223 -256
-397 -256 -168 0 -342 106 -357 219 -5 36 -2 44 30 76 49 49 98 49 158 -1 66
-55 98 -68 164 -69 77 0 143 36 180 99 l25 43 0 400 c0 272 4 410 11 432 21
61 105 89 168 56z m547 -19 l34 -34 0 -226 0 -226 285 0 285 0 0 211 c0 168 3
218 15 243 28 58 99 82 160 54 55 -25 55 -20 55 -624 l0 -556 -34 -34 c-39
-39 -86 -45 -137 -18 -53 27 -59 59 -59 299 l0 215 -285 0 -285 0 0 -231 0
-231 -34 -34 c-27 -27 -42 -34 -72 -34 -53 0 -86 19 -106 60 -16 32 -18 80
-18 566 0 369 3 541 11 563 14 41 62 71 113 71 30 0 45 -7 72 -34z"/>
</g>
</svg>
